# Blender 3.5.1
# www.blender.org
g corner_Cube
v -1.000000 1.000000 -1.000000
v 1.000000 -1.000000 -1.000000
v 1.000000 -1.000000 1.000000
v -1.000000 -1.000000 -1.000000
v -1.000000 -1.000000 1.000000
vn -0.0000 0.7071 0.7071
vn -1.0000 -0.0000 -0.0000
vn -0.0000 -1.0000 -0.0000
vn 0.7071 0.7071 -0.0000
vn -0.0000 -0.0000 -1.0000
vt 1.000000 1.000000
vt 1.000000 0.742188
vt 0.753906 0.742188
vt 0.753906 1.000000
vt 1.000000 0.742188
vt 0.753906 0.742188
vt 0.753906 0.742188
vt 1.000000 1.000000
s 0
f 3/4/1 1/2/1 5/7/1
f 5/7/2 1/2/2 4/6/2
f 4/5/3 2/3/3 3/4/3 5/8/3
f 2/3/4 1/1/4 3/4/4
f 4/6/5 1/2/5 2/3/5
