# Blender 3.5.1
# www.blender.org
g wedge_Cube
v 1.000000 1.000000 -1.000000
v 1.000000 -1.000000 -1.000000
v 1.000000 -1.000000 1.000000
v -1.000000 1.000000 -1.000000
v -1.000000 -1.000000 -1.000000
v -1.000000 -1.000000 1.000000
vn -0.0000 0.7071 0.7071
vn -1.0000 -0.0000 -0.0000
vn -0.0000 -1.0000 -0.0000
vn 1.0000 -0.0000 -0.0000
vn -0.0000 -0.0000 -1.0000
vt 1.000000 1.000000
vt 1.000000 0.742188
vt 0.753906 0.742188
vt 0.753906 1.000000
vt 1.000000 0.742188
vt 1.000000 0.742188
vt 0.753906 0.742188
vt 0.753906 0.742188
vt 1.000000 1.000000
s 0
f 3/4/1 1/1/1 4/5/1 6/8/1
f 6/8/2 4/5/2 5/7/2
f 5/6/3 2/3/3 3/4/3 6/9/3
f 2/3/4 1/1/4 3/4/4
f 5/7/5 4/5/5 1/2/5 2/3/5
